<svg width="1204" height="161" viewBox="0 0 1204 161" fill="none" xmlns="http://www.w3.org/2000/svg">
<path d="M42.8 46H43.3V45.5H42.8V46ZM1.2 46V45.5H0.7V46H1.2ZM1.2 158H0.7V158.5H1.2V158ZM42.8 158V158.5H43.3V158H42.8ZM42.8 45.5H1.2V46.5H42.8V45.5ZM0.7 46V158H1.7V46H0.7ZM1.2 158.5H42.8V157.5H1.2V158.5ZM43.3 158V46H42.3V158H43.3ZM185.169 46H185.669V45.5H185.169V46ZM47.5688 46V45.5H47.0688V46H47.5688ZM47.5688 81.2H47.0688V81.7H47.5688V81.2ZM95.5688 81.2H96.0688V80.7H95.5688V81.2ZM95.5688 158H95.0688V158.5H95.5688V158ZM137.169 158V158.5H137.669V158H137.169ZM137.169 81.2V80.7H136.669V81.2H137.169ZM185.169 81.2V81.7H185.669V81.2H185.169ZM185.169 45.5H47.5688V46.5H185.169V45.5ZM47.0688 46V81.2H48.0688V46H47.0688ZM47.5688 81.7H95.5688V80.7H47.5688V81.7ZM95.0688 81.2V158H96.0688V81.2H95.0688ZM95.5688 158.5H137.169V157.5H95.5688V158.5ZM137.669 158V81.2H136.669V158H137.669ZM137.169 81.7H185.169V80.7H137.169V81.7ZM185.669 81.2V46H184.669V81.2H185.669ZM280.19 1.2H280.69V0.586705L280.089 0.710246L280.19 1.2ZM217.95 14L217.849 13.5102L217.45 13.5924V14H217.95ZM217.95 36.4H217.45V37.0133L218.051 36.8897L217.95 36.4ZM280.19 23.6L280.291 24.0897L280.69 24.0076V23.6H280.19ZM308.35 78V78.5H308.85V78H308.35ZM308.35 46H308.85V45.5H308.35V46ZM189.95 46V45.5H189.45V46H189.95ZM189.95 158H189.45V158.5H189.95V158ZM308.35 158V158.5H308.85V158H308.35ZM308.35 126H308.85V125.5H308.35V126ZM231.55 126H231.05V126.5H231.55V126ZM231.55 115.6V115.1H231.05V115.6H231.55ZM308.35 115.6V116.1H308.85V115.6H308.35ZM308.35 88.4H308.85V87.9H308.35V88.4ZM231.55 88.4H231.05V88.9H231.55V88.4ZM231.55 78V77.5H231.05V78H231.55ZM280.089 0.710246L217.849 13.5102L218.051 14.4897L280.291 1.68975L280.089 0.710246ZM217.45 14V36.4H218.45V14H217.45ZM218.051 36.8897L280.291 24.0897L280.089 23.1102L217.849 35.9102L218.051 36.8897ZM280.69 23.6V1.2H279.69V23.6H280.69ZM308.85 78V46H307.85V78H308.85ZM308.35 45.5H189.95V46.5H308.35V45.5ZM189.45 46V158H190.45V46H189.45ZM189.95 158.5H308.35V157.5H189.95V158.5ZM308.85 158V126H307.85V158H308.85ZM308.35 125.5H231.55V126.5H308.35V125.5ZM232.05 126V115.6H231.05V126H232.05ZM231.55 116.1H308.35V115.1H231.55V116.1ZM308.85 115.6V88.4H307.85V115.6H308.85ZM308.35 87.9H231.55V88.9H308.35V87.9ZM232.05 88.4V78H231.05V88.4H232.05ZM231.55 78.5H308.35V77.5H231.55V78.5ZM313.075 46V45.5H312.575V46H313.075ZM313.075 158H312.575V158.5H313.075V158ZM354.675 158V158.5H355.175V158H354.675ZM354.675 131.76V131.26H354.175V131.76H354.675ZM379.155 131.76L379.585 131.505L379.44 131.26H379.155V131.76ZM394.675 158L394.245 158.255L394.39 158.5H394.675V158ZM443.955 158V158.5H444.851L444.381 157.737L443.955 158ZM424.115 125.84L423.863 125.408L423.421 125.667L423.689 126.103L424.115 125.84ZM354.675 81.2V80.7H354.175V81.2H354.675ZM354.675 96.56H354.175V97.06H354.675V96.56ZM444.455 88.88C444.455 76.2809 440.052 65.4302 432.41 57.7278C424.768 50.0248 413.916 45.5 401.075 45.5V46.5C413.674 46.5 424.262 50.9351 431.7 58.4321C439.138 65.9297 443.455 76.5191 443.455 88.88H444.455ZM401.075 45.5H313.075V46.5H401.075V45.5ZM312.575 46V158H313.575V46H312.575ZM313.075 158.5H354.675V157.5H313.075V158.5ZM355.175 158V131.76H354.175V158H355.175ZM354.675 132.26H379.155V131.26H354.675V132.26ZM378.725 132.015L394.245 158.255L395.105 157.745L379.585 131.505L378.725 132.015ZM394.675 158.5H443.955V157.5H394.675V158.5ZM444.381 157.737L424.541 125.577L423.689 126.103L443.529 158.263L444.381 157.737ZM424.367 126.272C436.856 118.973 444.455 105.359 444.455 88.88H443.455C443.455 105.041 436.014 118.307 423.863 125.408L424.367 126.272ZM354.675 81.7H393.075V80.7H354.675V81.7ZM393.075 81.7C395.188 81.7 397.371 81.7112 399.04 82.6012C399.854 83.0356 400.548 83.6827 401.044 84.6653C401.543 85.6557 401.855 87.0127 401.855 88.88H402.855C402.855 86.9073 402.527 85.3843 401.936 84.2147C401.342 83.0373 400.496 82.2444 399.51 81.7188C397.579 80.6888 395.122 80.7 393.075 80.7V81.7ZM401.855 88.88C401.855 90.7473 401.543 92.1043 401.044 93.0947C400.548 94.0773 399.854 94.7244 399.04 95.1588C397.371 96.0488 395.188 96.06 393.075 96.06V97.06C395.122 97.06 397.579 97.0712 399.51 96.0412C400.496 95.5156 401.342 94.7227 401.936 93.5453C402.527 92.3757 402.855 90.8527 402.855 88.88H401.855ZM393.075 96.06H354.675V97.06H393.075V96.06ZM355.175 96.56V81.2H354.175V96.56H355.175ZM555.9 158L555.433 158.178L555.555 158.5H555.9V158ZM601.66 158V158.5H602.408L602.122 157.809L601.66 158ZM555.26 46L555.722 45.8086L555.594 45.5H555.26V46ZM493.5 46V45.5H493.166L493.038 45.8086L493.5 46ZM447.1 158L446.638 157.809L446.352 158.5H447.1V158ZM492.86 158V158.5H493.205L493.327 158.178L492.86 158ZM500.54 137.84V137.34H500.195L500.073 137.662L500.54 137.84ZM548.22 137.84L548.687 137.662L548.565 137.34H548.22V137.84ZM511.42 109.04L510.952 108.863L510.696 109.54H511.42V109.04ZM524.38 74.8L524.848 74.623L524.38 73.3875L523.912 74.623L524.38 74.8ZM537.34 109.04V109.54H538.064L537.808 108.863L537.34 109.04ZM555.9 158.5H601.66V157.5H555.9V158.5ZM602.122 157.809L555.722 45.8086L554.798 46.1914L601.198 158.191L602.122 157.809ZM555.26 45.5H493.5V46.5H555.26V45.5ZM493.038 45.8086L446.638 157.809L447.562 158.191L493.962 46.1914L493.038 45.8086ZM447.1 158.5H492.86V157.5H447.1V158.5ZM493.327 158.178L501.007 138.018L500.073 137.662L492.393 157.822L493.327 158.178ZM500.54 138.34H548.22V137.34H500.54V138.34ZM547.753 138.018L555.433 158.178L556.367 157.822L548.687 137.662L547.753 138.018ZM511.888 109.217L524.848 74.977L523.912 74.623L510.952 108.863L511.888 109.217ZM523.912 74.977L536.872 109.217L537.808 108.863L524.848 74.623L523.912 74.977ZM537.34 108.54H511.42V109.54H537.34V108.54ZM715.325 46H715.825V45.5H715.325V46ZM577.725 46V45.5H577.225V46H577.725ZM577.725 81.2H577.225V81.7H577.725V81.2ZM625.725 81.2H626.225V80.7H625.725V81.2ZM625.725 158H625.225V158.5H625.725V158ZM667.325 158V158.5H667.825V158H667.325ZM667.325 81.2V80.7H666.825V81.2H667.325ZM715.325 81.2V81.7H715.825V81.2H715.325ZM715.325 45.5H577.725V46.5H715.325V45.5ZM577.225 46V81.2H578.225V46H577.225ZM577.725 81.7H625.725V80.7H577.725V81.7ZM625.225 81.2V158H626.225V81.2H625.225ZM625.725 158.5H667.325V157.5H625.725V158.5ZM667.825 158V81.2H666.825V158H667.825ZM667.325 81.7H715.325V80.7H667.325V81.7ZM715.825 81.2V46H714.825V81.2H715.825ZM761.706 46H762.206V45.5H761.706V46ZM720.106 46V45.5H719.606V46H720.106ZM720.106 158H719.606V158.5H720.106V158ZM761.706 158V158.5H762.206V158H761.706ZM761.706 45.5H720.106V46.5H761.706V45.5ZM719.606 46V158H720.606V46H719.606ZM720.106 158.5H761.706V157.5H720.106V158.5ZM762.206 158V46H761.206V158H762.206ZM835.313 160.1C859.921 160.1 877.662 155.374 889.253 145.684C900.865 135.977 906.213 121.371 906.213 101.84H905.213C905.213 121.189 899.92 135.463 888.612 144.916C877.283 154.386 859.824 159.1 835.313 159.1V160.1ZM906.213 101.84C906.213 82.3888 900.864 67.8618 889.252 58.2154C877.66 48.586 859.92 43.9 835.313 43.9V44.9C859.825 44.9 877.285 49.5739 888.613 58.9846C899.921 68.3782 905.213 82.5712 905.213 101.84H906.213ZM835.313 43.9C810.627 43.9 792.885 48.5455 781.313 58.1553C769.72 67.7825 764.413 82.3104 764.413 101.84H765.413C765.413 82.4896 770.665 68.2975 781.952 58.9247C793.26 49.5344 810.718 44.9 835.313 44.9V43.9ZM764.413 101.84C764.413 121.449 769.719 136.056 781.312 145.744C792.884 155.414 810.626 160.1 835.313 160.1V159.1C810.719 159.1 793.261 154.426 781.953 144.976C770.666 135.544 765.413 121.271 765.413 101.84H764.413ZM835.313 123.9C823.128 123.9 816.089 121.27 812.086 117.266C808.087 113.268 807.013 107.794 807.013 101.84H806.013C806.013 107.886 807.098 113.692 811.379 117.974C815.656 122.25 823.017 124.9 835.313 124.9V123.9ZM807.013 101.84C807.013 95.9641 808.048 90.5731 812.024 86.6353C816.007 82.6917 823.045 80.1 835.313 80.1V79.1C822.94 79.1 815.578 81.7083 811.321 85.9247C807.057 90.1469 806.013 95.8759 806.013 101.84H807.013ZM835.313 80.1C847.578 80.1 854.617 82.7308 858.6 86.6944C862.578 90.653 863.613 96.0454 863.613 101.84H864.613C864.613 95.9546 863.567 90.227 859.305 85.9856C855.048 81.7492 847.687 79.1 835.313 79.1V80.1ZM863.613 101.84C863.613 107.713 862.538 113.188 858.538 117.207C854.534 121.23 847.495 123.9 835.313 123.9V124.9C847.61 124.9 854.971 122.21 859.247 117.913C863.527 113.612 864.613 107.807 864.613 101.84H863.613ZM1013.3 46V45.5H1012.8V46H1013.3ZM1013.3 112.08L1012.89 112.375L1013.8 113.611V112.08H1013.3ZM964.975 46L965.379 45.7049L965.229 45.5H964.975V46ZM910.575 46V45.5H910.075V46H910.575ZM910.575 158H910.075V158.5H910.575V158ZM952.175 158V158.5H952.675V158H952.175ZM952.175 91.92L952.579 91.6249L951.675 90.3891V91.92H952.175ZM1000.5 158L1000.09 158.295L1000.24 158.5H1000.5V158ZM1054.9 158V158.5H1055.4V158H1054.9ZM1054.9 46H1055.4V45.5H1054.9V46ZM1012.8 46V112.08H1013.8V46H1012.8ZM1013.7 111.785L965.379 45.7049L964.571 46.2951L1012.89 112.375L1013.7 111.785ZM964.975 45.5H910.575V46.5H964.975V45.5ZM910.075 46V158H911.075V46H910.075ZM910.575 158.5H952.175V157.5H910.575V158.5ZM952.675 158V91.92H951.675V158H952.675ZM951.771 92.2151L1000.09 158.295L1000.9 157.705L952.579 91.6249L951.771 92.2151ZM1000.5 158.5H1054.9V157.5H1000.5V158.5ZM1055.4 158V46H1054.4V158H1055.4ZM1054.9 45.5H1013.3V46.5H1054.9V45.5ZM1059.76 118.48V117.98H1059.26V118.48H1059.76ZM1131.28 86.8L1131.3 86.3004L1131.3 86.3004L1131.28 86.8ZM1156.4 83.6H1155.9V84.1H1156.4V83.6ZM1198 83.6V84.1H1198.5V83.6H1198ZM1131.28 115.6L1131.26 116.1L1131.26 116.1L1131.28 115.6ZM1101.36 118.48H1101.86V117.98H1101.36V118.48ZM1059.26 118.48C1059.26 126.863 1060.87 133.685 1064.04 139.194C1067.21 144.707 1071.93 148.87 1078.07 151.966C1090.33 158.145 1108.31 160.1 1131.28 160.1V159.1C1108.32 159.1 1090.55 157.135 1078.52 151.074C1072.52 148.05 1067.97 144.013 1064.91 138.696C1061.84 133.375 1060.26 126.737 1060.26 118.48H1059.26ZM1131.28 160.1C1154.24 160.1 1172.22 158.144 1184.47 152.271C1190.61 149.328 1195.33 145.394 1198.5 140.219C1201.68 135.046 1203.3 128.67 1203.3 120.88H1202.3C1202.3 128.53 1200.71 134.714 1197.65 139.696C1194.6 144.676 1190.04 148.492 1184.04 151.369C1172.01 157.136 1154.23 159.1 1131.28 159.1V160.1ZM1203.3 120.88C1203.3 113.48 1201.57 107.689 1198.23 103.154C1194.9 98.6225 1190.01 95.3942 1183.77 93.0519C1171.32 88.3781 1153.35 87.1795 1131.3 86.3004L1131.26 87.2996C1153.36 88.1805 1171.15 89.3819 1183.42 93.9881C1189.54 96.2858 1194.25 99.4175 1197.43 103.746C1200.61 108.071 1202.3 113.64 1202.3 120.88H1203.3ZM1131.3 86.3004C1119.11 85.8194 1112.08 85.6202 1108.07 85.0058C1106.06 84.6973 1104.92 84.2961 1104.27 83.7779C1103.68 83.3 1103.46 82.6743 1103.46 81.68H1102.46C1102.46 82.8457 1102.73 83.82 1103.65 84.557C1104.51 85.2539 1105.89 85.6827 1107.92 85.9942C1112 86.6198 1119.12 86.8206 1131.26 87.2996L1131.3 86.3004ZM1103.46 81.68C1103.46 80.6818 1103.68 79.9559 1104.24 79.3815C1104.82 78.7865 1105.82 78.2897 1107.51 77.9076C1110.88 77.1424 1116.7 76.9 1126.48 76.9V75.9C1116.73 75.9 1110.79 76.1376 1107.29 76.9324C1105.53 77.3303 1104.31 77.8835 1103.53 78.6835C1102.73 79.5041 1102.46 80.5181 1102.46 81.68H1103.46ZM1126.48 76.9C1136.64 76.9 1144.07 77.2216 1148.95 78.2689C1151.39 78.7928 1153.14 79.4877 1154.27 80.3713C1155.37 81.2346 1155.9 82.2826 1155.9 83.6H1156.9C1156.9 81.9574 1156.22 80.6254 1154.89 79.5837C1153.58 78.5623 1151.66 77.8272 1149.16 77.2911C1144.16 76.2184 1136.63 75.9 1126.48 75.9V76.9ZM1156.4 84.1H1198V83.1H1156.4V84.1ZM1198.5 83.6C1198.5 76.3667 1196.94 70.2446 1193.89 65.1364C1190.85 60.0279 1186.33 55.9643 1180.45 52.8192C1168.72 46.5391 1151.54 43.9 1129.68 43.9V44.9C1151.5 44.9 1168.47 47.5408 1179.98 53.7008C1185.72 56.7757 1190.1 60.7221 1193.03 65.6486C1195.97 70.5754 1197.5 76.5133 1197.5 83.6H1198.5ZM1129.68 43.9C1107.57 43.9 1090.4 46.5399 1078.73 52.3119C1072.89 55.2016 1068.42 58.8845 1065.4 63.4286C1062.39 67.9756 1060.86 73.3545 1060.86 79.6H1061.86C1061.86 73.5255 1063.34 68.3444 1066.24 63.9814C1069.13 59.6155 1073.46 56.0384 1079.18 53.2081C1090.63 47.5401 1107.62 44.9 1129.68 44.9V43.9ZM1060.86 79.6C1060.86 86.1809 1062.08 91.6845 1064.74 96.2541C1067.4 100.827 1071.48 104.423 1077.13 107.228C1088.4 112.821 1105.98 115.3 1131.26 116.1L1131.29 115.1C1106.01 114.3 1088.63 111.819 1077.58 106.332C1072.07 103.597 1068.15 100.123 1065.6 95.7508C1063.05 91.3755 1061.86 86.0591 1061.86 79.6H1060.86ZM1131.26 116.1C1144.4 116.5 1151.83 116.861 1155.98 117.71C1158.05 118.135 1159.21 118.666 1159.86 119.308C1160.48 119.922 1160.7 120.703 1160.7 121.84H1161.7C1161.7 120.577 1161.45 119.478 1160.56 118.597C1159.7 117.744 1158.3 117.165 1156.18 116.73C1151.92 115.859 1144.39 115.5 1131.29 115.1L1131.26 116.1ZM1160.7 121.84C1160.7 122.8 1160.49 123.532 1159.88 124.143C1159.25 124.777 1158.13 125.34 1156.16 125.793C1152.23 126.698 1145.21 127.1 1132.88 127.1V128.1C1145.19 128.1 1152.32 127.702 1156.39 126.767C1158.42 126.3 1159.76 125.683 1160.59 124.847C1161.44 123.988 1161.7 122.96 1161.7 121.84H1160.7ZM1132.88 127.1C1119.68 127.1 1111.87 126.178 1107.38 124.608C1105.14 123.826 1103.77 122.898 1102.96 121.887C1102.15 120.886 1101.86 119.756 1101.86 118.48H1100.86C1100.86 119.924 1101.2 121.294 1102.18 122.513C1103.15 123.722 1104.71 124.734 1107.05 125.552C1111.72 127.182 1119.67 128.1 1132.88 128.1V127.1ZM1101.36 117.98H1059.76V118.98H1101.36V117.98Z" fill="#8b718aff"/>
</svg>
