<svg width="1431" height="155" viewBox="0 0 1431 155" fill="none" xmlns="http://www.w3.org/2000/svg">
<path d="M45.96 32.96H46.46V32.46H45.96V32.96ZM0.68 32.96V32.46H0.18V32.96H0.68ZM0.68 152H0.18V152.5H0.68V152ZM45.96 152V152.5H46.46V152H45.96ZM45.96 32.46H0.68V33.46H45.96V32.46ZM0.18 32.96V152H1.18V32.96H0.18ZM0.68 152.5H45.96V151.5H0.68V152.5ZM46.46 152V32.96H45.46V152H46.46ZM108.985 152H108.485V152.5H108.985V152ZM154.425 152V152.5H154.925V152H154.425ZM154.425 65.44V64.94H153.925V65.44H154.425ZM205.785 65.44V65.94H206.285V65.44H205.785ZM205.785 32.96H206.285V32.46H205.785V32.96ZM57.625 32.96V32.46H57.125V32.96H57.625ZM57.625 65.44H57.125V65.94H57.625V65.44ZM108.985 65.44H109.485V64.94H108.985V65.44ZM108.985 152.5H154.425V151.5H108.985V152.5ZM154.925 152V65.44H153.925V152H154.925ZM154.425 65.94H205.785V64.94H154.425V65.94ZM206.285 65.44V32.96H205.285V65.44H206.285ZM205.785 32.46H57.625V33.46H205.785V32.46ZM57.125 32.96V65.44H58.125V32.96H57.125ZM57.625 65.94H108.985V64.94H57.625V65.94ZM108.485 65.44V152H109.485V65.44H108.485ZM217.555 32.96V32.46H217.055V32.96H217.555ZM217.555 152H217.055V152.5H217.555V152ZM350.515 152V152.5H351.015V152H350.515ZM350.515 122.24H351.015V121.74H350.515V122.24ZM262.355 122.24H261.855V122.74H262.355V122.24ZM262.355 105.92V105.42H261.855V105.92H262.355ZM347.475 105.92V106.42H347.975V105.92H347.475ZM347.475 76.96H347.975V76.46H347.475V76.96ZM262.355 76.96H261.855V77.46H262.355V76.96ZM262.355 62.08V61.58H261.855V62.08H262.355ZM349.235 62.08V62.58H349.735V62.08H349.235ZM349.235 32.96H349.735V32.46H349.235V32.96ZM262.515 25.76L262.07 25.5329L261.699 26.26H262.515V25.76ZM303.635 25.76V26.26H303.906L304.054 26.033L303.635 25.76ZM319.795 0.95999L320.214 1.23296L320.718 0.45999H319.795V0.95999ZM275.155 0.95999V0.45999H274.849L274.71 0.732941L275.155 0.95999ZM217.055 32.96V152H218.055V32.96H217.055ZM217.555 152.5H350.515V151.5H217.555V152.5ZM351.015 152V122.24H350.015V152H351.015ZM350.515 121.74H262.355V122.74H350.515V121.74ZM262.855 122.24V105.92H261.855V122.24H262.855ZM262.355 106.42H347.475V105.42H262.355V106.42ZM347.975 105.92V76.96H346.975V105.92H347.975ZM347.475 76.46H262.355V77.46H347.475V76.46ZM262.855 76.96V62.08H261.855V76.96H262.855ZM262.355 62.58H349.235V61.58H262.355V62.58ZM349.735 62.08V32.96H348.735V62.08H349.735ZM349.235 32.46H217.555V33.46H349.235V32.46ZM262.515 26.26H303.635V25.26H262.515V26.26ZM304.054 26.033L320.214 1.23296L319.376 0.687021L303.216 25.487L304.054 26.033ZM319.795 0.45999H275.155V1.45999H319.795V0.45999ZM274.71 0.732941L262.07 25.5329L262.96 25.987L275.6 1.18704L274.71 0.732941ZM409.089 61.92V61.42H408.589V61.92H409.089ZM409.089 82.4H408.589V82.9H409.089V82.4ZM409.089 111.2V110.7H408.589V111.2H409.089ZM471.169 116.32L470.832 116.689L470.832 116.689L471.169 116.32ZM478.209 152L477.855 152.354L478.002 152.5H478.209V152ZM524.609 152V152.5H525.109V152H524.609ZM524.609 151.2H525.109V151.064L525.04 150.946L524.609 151.2ZM515.809 101.76L516.18 101.425L516.174 101.419L515.809 101.76ZM497.889 91.84L497.767 91.3549L497.775 92.3268L497.889 91.84ZM505.409 89.12L505.208 88.6619L505.197 88.6671L505.185 88.6728L505.409 89.12ZM513.089 84.32L512.789 83.92L512.781 83.9258L512.773 83.9319L513.089 84.32ZM519.489 76.32L519.041 76.0963L519.037 76.105L519.489 76.32ZM363.649 32.96V32.46H363.149V32.96H363.649ZM363.649 152H363.149V152.5H363.649V152ZM409.089 152V152.5H409.589V152H409.089ZM409.089 62.42H461.249V61.42H409.089V62.42ZM461.249 62.42C465.762 62.42 469.077 63.2539 471.254 64.8438C473.402 66.4126 474.509 68.7684 474.509 72H475.509C475.509 68.5116 474.296 65.8274 471.844 64.0362C469.42 62.2661 465.856 61.42 461.249 61.42V62.42ZM474.509 72V72.16H475.509V72H474.509ZM474.509 72.16C474.509 75.4757 473.399 77.8709 471.252 79.4579C469.076 81.066 465.762 81.9 461.249 81.9V82.9C465.855 82.9 469.422 82.054 471.846 80.2621C474.299 78.4491 475.509 75.7243 475.509 72.16H474.509ZM461.249 81.9H409.089V82.9H461.249V81.9ZM409.589 82.4V61.92H408.589V82.4H409.589ZM409.089 111.7H452.609V110.7H409.089V111.7ZM452.609 111.7C461.204 111.7 467.289 113.455 470.832 116.689L471.506 115.951C467.688 112.465 461.293 110.7 452.609 110.7V111.7ZM470.832 116.689C474.375 119.925 476.269 124.889 476.269 131.84H477.269C477.269 124.711 475.322 119.435 471.506 115.951L470.832 116.689ZM476.269 131.84V145.76H477.269V131.84H476.269ZM476.269 145.76C476.269 147.381 476.39 148.742 476.642 149.832C476.892 150.916 477.281 151.78 477.855 152.354L478.562 151.646C478.176 151.26 477.846 150.604 477.616 149.608C477.388 148.618 477.269 147.339 477.269 145.76H476.269ZM478.209 152.5H524.609V151.5H478.209V152.5ZM525.109 152V151.2H524.109V152H525.109ZM525.04 150.946C523.515 148.354 522.869 143.999 522.869 137.76H521.869C521.869 144.001 522.503 148.606 524.178 151.454L525.04 150.946ZM522.869 137.76V120.16H521.869V137.76H522.869ZM522.869 120.16C522.869 112.694 520.594 106.329 516.18 101.426L515.437 102.094C519.664 106.791 521.869 112.906 521.869 120.16H522.869ZM516.174 101.419C511.619 96.5382 505.608 93.133 498.003 91.3532L497.775 92.3268C505.21 94.067 511.039 97.3818 515.443 102.101L516.174 101.419ZM498.01 92.3251C500.596 91.6785 503.032 90.8673 505.632 89.5672L505.185 88.6728C502.665 89.9327 500.301 90.7215 497.767 91.3549L498.01 92.3251ZM505.609 89.5781C508.217 88.4371 510.815 86.8115 513.404 84.7081L512.773 83.9319C510.242 85.9885 507.72 87.5629 505.208 88.6619L505.609 89.5781ZM513.389 84.72C516.018 82.7484 518.308 79.9633 519.94 76.535L519.037 76.105C517.47 79.3967 515.28 82.0516 512.789 83.92L513.389 84.72ZM519.936 76.5436C521.576 73.2637 522.389 69.505 522.389 65.28H521.389C521.389 69.375 520.602 72.9763 519.042 76.0964L519.936 76.5436ZM522.389 65.28V63.52H521.389V65.28H522.389ZM522.389 63.52C522.389 53.1931 518.104 45.3877 509.589 40.1932C501.113 35.0226 488.484 32.46 471.809 32.46V33.46C488.413 33.46 500.824 36.0174 509.068 41.0468C517.273 46.0523 521.389 53.5269 521.389 63.52H522.389ZM471.809 32.46H363.649V33.46H471.809V32.46ZM363.149 32.96V152H364.149V32.96H363.149ZM363.649 152.5H409.089V151.5H363.649V152.5ZM409.589 152V111.2H408.589V152H409.589ZM634.861 103.04V103.54H635.662L635.311 102.821L634.861 103.04ZM595.341 103.04L594.89 102.825L594.549 103.54H595.341V103.04ZM614.861 62.08L615.311 61.8606L614.856 60.9292L614.41 61.8649L614.861 62.08ZM658.701 152L658.251 152.218L658.388 152.5H658.701V152ZM708.461 152V152.5H709.287L708.904 151.768L708.461 152ZM646.221 32.96L646.664 32.7283L646.524 32.46H646.221V32.96ZM585.101 32.96V32.46H584.791L584.653 32.7383L585.101 32.96ZM526.221 152L525.773 151.778L525.416 152.5H526.221V152ZM572.301 152V152.5H572.617L572.753 152.215L572.301 152ZM581.421 132.8V132.3H581.105L580.97 132.585L581.421 132.8ZM649.421 132.8L649.871 132.582L649.735 132.3H649.421V132.8ZM634.861 102.54H595.341V103.54H634.861V102.54ZM595.793 103.255L615.313 62.2951L614.41 61.8649L594.89 102.825L595.793 103.255ZM614.412 62.2994L634.412 103.259L635.311 102.821L615.311 61.8606L614.412 62.2994ZM658.701 152.5H708.461V151.5H658.701V152.5ZM708.904 151.768L646.664 32.7283L645.778 33.1917L708.018 152.232L708.904 151.768ZM646.221 32.46H585.101V33.46H646.221V32.46ZM584.653 32.7383L525.773 151.778L526.669 152.222L585.549 33.1817L584.653 32.7383ZM526.221 152.5H572.301V151.5H526.221V152.5ZM572.753 152.215L581.873 133.015L580.97 132.585L571.85 151.785L572.753 152.215ZM581.421 133.3H649.421V132.3H581.421V133.3ZM648.971 133.018L658.251 152.218L659.151 151.782L649.871 132.582L648.971 133.018ZM736.641 152H736.141V152.5H736.641V152ZM782.081 152V152.5H782.581V152H782.081ZM782.081 65.44V64.94H781.581V65.44H782.081ZM833.441 65.44V65.94H833.941V65.44H833.441ZM833.441 32.96H833.941V32.46H833.441V32.96ZM685.281 32.96V32.46H684.781V32.96H685.281ZM685.281 65.44H684.781V65.94H685.281V65.44ZM736.641 65.44H737.141V64.94H736.641V65.44ZM736.641 152.5H782.081V151.5H736.641V152.5ZM782.581 152V65.44H781.581V152H782.581ZM782.081 65.94H833.441V64.94H782.081V65.94ZM833.941 65.44V32.96H832.941V65.44H833.941ZM833.441 32.46H685.281V33.46H833.441V32.46ZM684.781 32.96V65.44H685.781V32.96H684.781ZM685.281 65.94H736.641V64.94H685.281V65.94ZM736.141 65.44V152H737.141V65.44H736.141ZM890.491 32.96H890.991V32.46H890.491V32.96ZM845.211 32.96V32.46H844.711V32.96H845.211ZM845.211 152H844.711V152.5H845.211V152ZM890.491 152V152.5H890.991V152H890.491ZM890.491 32.46H845.211V33.46H890.491V32.46ZM844.711 32.96V152H845.711V32.96H844.711ZM845.211 152.5H890.491V151.5H845.211V152.5ZM890.991 152V32.96H889.991V152H890.991ZM959.596 32.96L959.514 32.4668L959.514 32.4668L959.596 32.96ZM922.156 47.04L922.456 47.44L922.456 47.44L922.156 47.04ZM911.596 57.12L911.198 56.8169L911.192 56.8259L911.596 57.12ZM905.516 68.32L905.052 68.1343L905.05 68.1405L905.516 68.32ZM902.476 79.36L901.982 79.2858L901.981 79.2893L902.476 79.36ZM902.476 104.96L902.971 104.889L902.971 104.886L902.476 104.96ZM905.516 116.16L905.983 115.981L905.983 115.981L905.516 116.16ZM911.596 127.52L912.001 127.226L912.001 127.226L911.596 127.52ZM922.156 137.76L922.465 137.367L922.456 137.36L922.156 137.76ZM937.676 146.4L937.864 145.937L937.853 145.932L937.676 146.4ZM959.596 152.16L959.514 152.653L959.514 152.653L959.596 152.16ZM1024.88 152.16L1024.96 152.653L1024.96 152.653L1024.88 152.16ZM1046.8 146.4L1046.62 145.934L1046.61 145.937L1046.8 146.4ZM1062.32 137.76L1062.02 137.36L1062.01 137.367L1062.32 137.76ZM1072.72 127.52L1073.12 127.814L1073.12 127.814L1072.72 127.52ZM1081.84 104.96L1081.34 104.886L1081.34 104.889L1081.84 104.96ZM1081.84 79.36L1082.33 79.2893L1082.33 79.2858L1081.84 79.36ZM1078.8 68.32L1079.26 68.1405L1079.26 68.1343L1078.8 68.32ZM1072.72 57.12L1073.12 56.8258L1073.11 56.817L1072.72 57.12ZM1062.16 47.04L1061.86 47.44L1061.86 47.44L1062.16 47.04ZM1024.72 32.96L1024.63 33.4532L1024.63 33.4532L1024.72 32.96ZM1033.68 103.2L1034.14 103.386L1034.14 103.386L1033.68 103.2ZM1027.28 112.32L1026.92 111.966L1026.92 111.966L1027.28 112.32ZM1013.68 119.52L1013.82 120L1013.82 120L1013.68 119.52ZM970.636 119.36L970.787 118.883L970.775 118.88L970.636 119.36ZM957.196 112.16L957.559 111.816L957.55 111.806L957.196 112.16ZM950.796 102.88L951.26 102.694L951.26 102.694L950.796 102.88ZM950.636 81.12L950.175 80.926L950.175 80.926L950.636 81.12ZM957.036 72.16L957.38 72.5231L957.39 72.5136L957.036 72.16ZM970.476 65.28L970.346 64.7972L970.337 64.7997L970.476 65.28ZM1013.68 65.28L1013.82 64.8007L1013.81 64.7985L1013.8 64.7965L1013.68 65.28ZM1027.12 72.16L1026.77 72.523L1026.77 72.523L1027.12 72.16ZM1033.68 81.12L1034.14 80.926L1034.14 80.926L1033.68 81.12ZM988.716 30.22C977.972 30.22 968.184 31.0218 959.514 32.4668L959.678 33.4532C968.288 32.0182 978.021 31.22 988.716 31.22V30.22ZM959.514 32.4668C950.85 33.9108 943.457 35.8381 937.499 38.0923L937.853 39.0276C943.735 36.8019 951.062 34.8892 959.678 33.4532L959.514 32.4668ZM937.499 38.0923C931.535 40.3491 926.374 43.252 921.856 46.64L922.456 47.44C926.899 44.108 931.978 41.2509 937.853 39.0276L937.499 38.0923ZM921.856 46.64C917.351 50.0192 913.794 53.4106 911.199 56.817L911.994 57.423C914.519 54.1094 918.002 50.7807 922.456 47.44L921.856 46.64ZM911.192 56.8259C908.603 60.3853 906.664 64.1032 905.052 68.1343L905.98 68.5057C907.568 64.5368 909.469 60.8947 912.001 57.4141L911.192 56.8259ZM905.05 68.1405C903.438 72.3298 902.468 76.0451 901.982 79.2858L902.971 79.4342C903.445 76.2749 904.394 72.6302 905.983 68.4995L905.05 68.1405ZM901.981 79.2893C901.497 82.6808 901.336 86.2263 901.336 89.76H902.336C902.336 86.2537 902.496 82.7592 902.971 79.4307L901.981 79.2893ZM901.336 89.76V94.56H902.336V89.76H901.336ZM901.336 94.56C901.336 98.2521 901.497 101.8 901.982 105.034L902.971 104.886C902.496 101.72 902.336 98.2279 902.336 94.56H901.336ZM901.981 105.031C902.467 108.433 903.438 112.15 905.05 116.339L905.983 115.981C904.394 111.85 903.445 108.207 902.971 104.889L901.981 105.031ZM905.05 116.339C906.663 120.534 908.603 124.254 911.192 127.814L912.001 127.226C909.47 123.746 907.57 120.106 905.983 115.981L905.05 116.339ZM911.192 127.814C913.79 131.387 917.351 134.781 921.856 138.16L922.456 137.36C918.002 134.019 914.522 130.693 912.001 127.226L911.192 127.814ZM921.847 138.153C926.37 141.707 931.535 144.611 937.499 146.868L937.853 145.932C931.978 143.709 926.903 140.853 922.465 137.367L921.847 138.153ZM937.488 146.863C943.453 149.281 950.851 151.209 959.514 152.653L959.678 151.667C951.061 150.231 943.739 148.319 937.864 145.937L937.488 146.863ZM959.514 152.653C968.189 154.099 977.978 154.74 988.716 154.74V153.74C978.015 153.74 968.284 153.101 959.678 151.667L959.514 152.653ZM988.716 154.74H995.916V153.74H988.716V154.74ZM995.916 154.74C1006.49 154.74 1016.28 154.099 1024.96 152.653L1024.79 151.667C1016.19 153.101 1006.46 153.74 995.916 153.74V154.74ZM1024.96 152.653C1033.62 151.209 1041.02 149.281 1046.98 146.863L1046.61 145.937C1040.73 148.319 1033.41 150.231 1024.79 151.667L1024.96 152.653ZM1046.98 146.866C1052.78 144.611 1058.1 141.709 1062.63 138.153L1062.01 137.367C1057.57 140.851 1052.34 143.709 1046.62 145.934L1046.98 146.866ZM1062.62 138.16C1067.13 134.776 1070.53 131.381 1073.12 127.814L1072.31 127.226C1069.79 130.699 1066.46 134.024 1062.02 137.36L1062.62 138.16ZM1073.12 127.814C1075.71 124.254 1077.65 120.534 1079.26 116.339L1078.33 115.981C1076.74 120.106 1074.84 123.746 1072.31 127.226L1073.12 127.814ZM1079.26 116.339C1080.87 112.15 1081.85 108.433 1082.33 105.031L1081.34 104.889C1080.87 108.207 1079.92 111.85 1078.33 115.981L1079.26 116.339ZM1082.33 105.034C1082.81 101.814 1083.14 98.2686 1083.14 94.56H1082.14C1082.14 98.2114 1081.82 101.706 1081.34 104.886L1082.33 105.034ZM1083.14 94.56V89.76H1082.14V94.56H1083.14ZM1083.14 89.76C1083.14 86.2105 1082.81 82.6661 1082.33 79.2893L1081.34 79.4307C1081.82 82.7739 1082.14 86.2695 1082.14 89.76H1083.14ZM1082.33 79.2858C1081.84 76.0451 1080.87 72.3298 1079.26 68.1405L1078.33 68.4995C1079.92 72.6302 1080.87 76.2749 1081.34 79.4342L1082.33 79.2858ZM1079.26 68.1343C1077.65 64.1032 1075.71 60.3853 1073.12 56.8259L1072.31 57.4141C1074.84 60.8947 1076.74 64.5368 1078.33 68.5057L1079.26 68.1343ZM1073.11 56.817C1070.52 53.4106 1066.96 50.0192 1062.46 46.64L1061.86 47.44C1066.31 50.7807 1069.79 54.1094 1072.32 57.423L1073.11 56.817ZM1062.46 46.64C1057.94 43.252 1052.78 40.3491 1046.81 38.0923L1046.46 39.0276C1052.33 41.2509 1057.41 44.108 1061.86 47.44L1062.46 46.64ZM1046.81 38.0923C1040.86 35.8381 1033.46 33.9108 1024.8 32.4668L1024.63 33.4532C1033.25 34.8892 1040.58 36.8019 1046.46 39.0276L1046.81 38.0923ZM1024.8 32.4668C1016.13 31.0219 1006.5 30.22 995.916 30.22V31.22C1006.45 31.22 1016.02 32.0181 1024.63 33.4532L1024.8 32.4668ZM995.916 30.22H988.716V31.22H995.916V30.22ZM1035.1 93.12C1035.1 96.5778 1034.47 99.8746 1033.21 103.014L1034.14 103.386C1035.44 100.125 1036.1 96.7022 1036.1 93.12H1035.1ZM1033.21 103.014C1031.97 106.131 1029.77 109.116 1026.92 111.966L1027.63 112.674C1030.54 109.764 1032.83 106.669 1034.14 103.386L1033.21 103.014ZM1026.92 111.966C1023.96 114.927 1019.57 117.294 1013.54 119.04L1013.82 120C1019.94 118.226 1024.51 115.793 1027.63 112.674L1026.92 111.966ZM1013.54 119.04C1007.52 120.783 1000.53 121.58 992.236 121.58V122.58C1000.59 122.58 1007.68 121.777 1013.82 120L1013.54 119.04ZM992.236 121.58C983.944 121.58 976.8 120.782 970.787 118.883L970.486 119.837C976.632 121.778 983.888 122.58 992.236 122.58V121.58ZM970.775 118.88C964.74 117.133 960.354 114.767 957.559 111.816L956.833 112.504C959.798 115.633 964.372 118.067 970.497 119.84L970.775 118.88ZM957.55 111.806C954.548 108.804 952.511 105.819 951.26 102.694L950.332 103.066C951.642 106.341 953.765 109.436 956.843 112.514L957.55 111.806ZM951.26 102.694C950.005 99.5546 949.376 96.2578 949.376 92.8H948.376C948.376 96.3822 949.028 99.8054 950.332 103.066L951.26 102.694ZM949.376 92.8V90.88H948.376V92.8H949.376ZM949.376 90.88C949.376 87.4062 949.85 84.2762 951.097 81.314L950.175 80.926C948.863 84.0438 948.376 87.3138 948.376 90.88H949.376ZM951.097 81.314C952.348 78.3438 954.385 75.36 957.38 72.523L956.692 71.797C953.607 74.72 951.485 77.8162 950.175 80.926L951.097 81.314ZM957.39 72.5136C960.183 69.72 964.57 67.5103 970.615 65.7603L970.337 64.7997C964.223 66.5697 959.649 68.8399 956.683 71.8064L957.39 72.5136ZM970.607 65.7627C976.477 64.176 983.633 63.22 992.236 63.22V62.22C983.56 62.22 976.315 63.184 970.346 64.7973L970.607 65.7627ZM992.236 63.22C1000.52 63.22 1007.51 64.1754 1013.55 65.7635L1013.8 64.7965C1007.68 63.1846 1000.6 62.22 992.236 62.22V63.22ZM1013.53 65.7593C1019.42 67.5083 1023.81 69.7192 1026.77 72.523L1027.46 71.797C1024.34 68.8408 1019.78 66.5717 1013.82 64.8007L1013.53 65.7593ZM1026.77 72.523C1029.78 75.369 1031.97 78.3538 1033.22 81.314L1034.14 80.926C1032.82 77.8062 1030.54 74.711 1027.46 71.797L1026.77 72.523ZM1033.22 81.314C1034.47 84.29 1035.1 87.4237 1035.1 90.88H1036.1C1036.1 87.2963 1035.44 84.03 1034.14 80.926L1033.22 81.314ZM1035.1 90.88V93.12H1036.1V90.88H1035.1ZM1093.96 32.96V32.46H1093.46V32.96H1093.96ZM1093.96 152H1093.46V152.5H1093.96V152ZM1139.08 152V152.5H1139.58V152H1139.08ZM1139.08 79.84L1139.43 79.4807L1138.58 78.6603V79.84H1139.08ZM1213.64 152L1213.29 152.359L1213.44 152.5H1213.64V152ZM1259.08 152V152.5H1259.58V152H1259.08ZM1259.08 32.96H1259.58V32.46H1259.08V32.96ZM1213.96 32.96V32.46H1213.46V32.96H1213.96ZM1213.96 100.64L1213.61 100.997L1214.46 101.829V100.64H1213.96ZM1144.84 32.96L1145.19 32.6027L1145.05 32.46H1144.84V32.96ZM1093.46 32.96V152H1094.46V32.96H1093.46ZM1093.96 152.5H1139.08V151.5H1093.96V152.5ZM1139.58 152V79.84H1138.58V152H1139.58ZM1138.73 80.1993L1213.29 152.359L1213.99 151.641L1139.43 79.4807L1138.73 80.1993ZM1213.64 152.5H1259.08V151.5H1213.64V152.5ZM1259.58 152V32.96H1258.58V152H1259.58ZM1259.08 32.46H1213.96V33.46H1259.08V32.46ZM1213.46 32.96V100.64H1214.46V32.96H1213.46ZM1214.31 100.283L1145.19 32.6027L1144.49 33.3173L1213.61 100.997L1214.31 100.283ZM1144.84 32.46H1093.96V33.46H1144.84V32.46ZM1409.15 145.92L1408.93 145.47L1408.93 145.47L1409.15 145.92ZM1421.95 136.64L1421.57 136.312L1421.57 136.312L1421.95 136.64ZM1428.35 125.76L1428.83 125.912L1428.83 125.902L1428.83 125.892L1428.35 125.76ZM1415.39 85.12L1415.64 84.6881L1415.64 84.6863L1415.39 85.12ZM1367.07 75.68L1367.08 75.1802L1367.08 75.1801L1367.07 75.68ZM1345.63 75.2L1345.64 74.7H1345.63V75.2ZM1328.99 73.76L1329.11 73.2749L1329.11 73.2738L1328.99 73.76ZM1321.31 70.56L1321.69 70.2307L1321.68 70.2182L1321.66 70.2064L1321.31 70.56ZM1321.15 61.6L1321.53 61.9254L1321.53 61.9254L1321.15 61.6ZM1328.67 58.56L1328.78 59.0472L1328.79 59.0462L1328.67 58.56ZM1376.35 69.76L1375.85 69.8173L1375.9 70.26H1376.35V69.76ZM1425.79 69.76V70.26H1426.29V69.76H1425.79ZM1310.75 32.96L1310.83 33.454L1310.83 33.454L1310.75 32.96ZM1291.07 38.08L1290.88 37.6188L1290.87 37.6219L1291.07 38.08ZM1278.91 46.08L1279.26 46.4337L1279.27 46.4244L1278.91 46.08ZM1272.51 56L1272.98 56.178L1272.98 56.1681L1272.98 56.1581L1272.51 56ZM1329.15 104.48L1329.16 103.98L1329.16 103.98L1329.15 104.48ZM1351.23 105.12L1351.25 104.62L1351.24 104.62L1351.23 105.12ZM1369.47 107.04L1369.58 106.553L1369.58 106.553L1369.47 107.04ZM1377.47 110.56L1377.09 110.889L1377.09 110.889L1377.47 110.56ZM1374.27 123.84L1374.52 124.272L1374.52 124.272L1374.27 123.84ZM1365.31 126.4L1365.39 126.894L1365.39 126.894L1365.31 126.4ZM1318.91 110.4L1319.41 110.364L1319.38 109.9H1318.91V110.4ZM1268.99 110.4V109.9H1268.49V110.4H1268.99ZM1356.19 154.74C1368.2 154.74 1378.8 154.099 1387.8 152.492L1387.62 151.508C1378.7 153.101 1368.18 153.74 1356.19 153.74V154.74ZM1387.8 152.492C1396.77 150.89 1404.03 148.96 1409.37 146.37L1408.93 145.47C1403.71 148 1396.57 149.91 1387.62 151.508L1387.8 152.492ZM1409.37 146.37C1414.69 143.79 1419.07 140.713 1422.33 136.968L1421.57 136.312C1418.43 139.927 1414.17 142.93 1408.93 145.47L1409.37 146.37ZM1422.33 136.968C1425.56 133.245 1427.68 129.506 1428.83 125.912L1427.87 125.608C1426.78 129.054 1424.74 132.675 1421.57 136.312L1422.33 136.968ZM1428.83 125.892C1429.8 122.333 1430.45 118.288 1430.45 113.76H1429.45C1429.45 118.192 1428.82 122.147 1427.87 125.628L1428.83 125.892ZM1430.45 113.76V111.52H1429.45V113.76H1430.45ZM1430.45 111.52C1430.45 99.3539 1425.41 90.3835 1415.64 84.6881L1415.14 85.5519C1424.57 91.0565 1429.45 99.6861 1429.45 111.52H1430.45ZM1415.64 84.6863C1405.77 79.022 1389.5 75.8207 1367.08 75.1802L1367.06 76.1798C1389.44 76.8193 1405.49 80.018 1415.14 85.5537L1415.64 84.6863ZM1367.08 75.1801L1345.64 74.7001L1345.62 75.6999L1367.06 76.1799L1367.08 75.1801ZM1345.63 74.7C1338.44 74.7 1332.89 74.22 1329.11 73.2749L1328.87 74.2451C1332.77 75.22 1338.42 75.7 1345.63 75.7V74.7ZM1329.11 73.2738C1327.12 72.796 1325.5 72.3229 1324.26 71.8168C1323 71.3073 1322.17 70.7834 1321.69 70.2307L1320.93 70.8893C1321.57 71.6166 1322.58 72.2127 1323.88 72.7432C1325.2 73.2771 1326.86 73.7639 1328.87 74.2462L1329.11 73.2738ZM1321.66 70.2064C1320.66 69.2063 1320.21 67.9095 1320.21 66.08H1319.21C1319.21 68.0904 1319.72 69.6737 1320.96 70.9136L1321.66 70.2064ZM1320.21 66.08V65.92H1319.21V66.08H1320.21ZM1320.21 65.92C1320.21 64.2552 1320.66 62.938 1321.53 61.9254L1320.77 61.2746C1319.72 62.502 1319.21 64.0648 1319.21 65.92H1320.21ZM1321.53 61.9254C1321.93 61.4573 1322.68 60.9741 1323.9 60.4837C1325.1 59.9977 1326.71 59.5246 1328.78 59.0472L1328.56 58.0728C1326.47 58.5554 1324.8 59.0423 1323.52 59.5563C1322.26 60.0659 1321.33 60.6227 1320.77 61.2746L1321.53 61.9254ZM1328.79 59.0462C1332.73 58.1 1338.44 57.62 1345.95 57.62V56.62C1338.42 56.62 1332.61 57.1 1328.55 58.0738L1328.79 59.0462ZM1345.95 57.62H1347.55V56.62H1345.95V57.62ZM1347.55 57.62C1356.64 57.62 1363.52 58.6987 1368.23 60.7774C1372.91 62.8462 1375.4 65.8787 1375.85 69.8173L1376.85 69.7027C1376.34 65.3213 1373.55 62.0338 1368.63 59.8626C1363.74 57.7013 1356.7 56.62 1347.55 56.62V57.62ZM1376.35 70.26H1425.79V69.26H1376.35V70.26ZM1426.29 69.76V68.48H1425.29V69.76H1426.29ZM1426.29 68.48C1426.29 62.1558 1424.76 56.5896 1421.68 51.8047C1418.61 47.022 1414.01 43.048 1407.92 39.8765C1395.75 33.541 1377.58 30.38 1353.47 30.38V31.38C1377.52 31.38 1395.51 34.539 1407.46 40.7635C1413.43 43.872 1417.88 47.7379 1420.84 52.3453C1423.8 56.9504 1425.29 62.3242 1425.29 68.48H1426.29ZM1353.47 30.38H1339.23V31.38H1353.47V30.38ZM1339.23 30.38C1328.33 30.38 1318.86 31.1818 1310.67 32.466L1310.83 33.454C1318.96 32.1782 1328.37 31.38 1339.23 31.38V30.38ZM1310.67 32.466C1302.49 33.75 1295.89 35.5186 1290.88 37.6189L1291.26 38.5411C1296.17 36.4814 1302.69 34.7299 1310.83 33.454L1310.67 32.466ZM1290.87 37.6219C1285.71 39.8789 1281.65 42.4724 1278.55 45.7356L1279.27 46.4244C1282.25 43.2876 1286.19 40.7611 1291.27 38.5381L1290.87 37.6219ZM1278.56 45.7264C1275.31 48.974 1273.18 52.399 1272.04 55.8419L1272.98 56.1581C1274.08 52.881 1276.11 49.586 1279.26 46.4335L1278.56 45.7264ZM1272.04 55.822C1270.73 59.2576 1270.25 63.0032 1270.25 67.2H1271.25C1271.25 63.0768 1271.73 59.4623 1272.98 56.178L1272.04 55.822ZM1270.25 67.2V68.64H1271.25V67.2H1270.25ZM1270.25 68.64C1270.25 80.2523 1275.18 89.1341 1285.05 95.2059C1294.88 101.254 1309.58 104.499 1329.14 104.98L1329.16 103.98C1309.68 103.501 1295.18 100.266 1285.57 94.3541C1276 88.4658 1271.25 79.9077 1271.25 68.64H1270.25ZM1329.14 104.98L1351.22 105.62L1351.24 104.62L1329.16 103.98L1329.14 104.98ZM1351.21 105.62C1359.2 105.939 1365.24 106.578 1369.36 107.527L1369.58 106.553C1365.38 105.582 1359.26 104.941 1351.25 104.62L1351.21 105.62ZM1369.36 107.527C1371.42 108.002 1373.1 108.553 1374.41 109.136C1375.72 109.724 1376.6 110.328 1377.09 110.889L1377.85 110.231C1377.22 109.512 1376.18 108.836 1374.81 108.224C1373.44 107.607 1371.68 107.038 1369.58 106.553L1369.36 107.527ZM1377.09 110.889C1378.12 112.062 1378.73 113.698 1378.73 115.84H1379.73C1379.73 113.502 1379.06 111.618 1377.85 110.231L1377.09 110.889ZM1378.73 115.84V116H1379.73V115.84H1378.73ZM1378.73 116C1378.73 117.498 1378.28 118.86 1377.66 120.096L1378.56 120.544C1379.22 119.22 1379.73 117.702 1379.73 116H1378.73ZM1377.66 120.096C1377.09 121.246 1375.91 122.305 1374.02 123.408L1374.52 124.272C1376.47 123.135 1377.85 121.954 1378.56 120.544L1377.66 120.096ZM1374.02 123.408C1372.18 124.477 1369.23 125.267 1365.23 125.906L1365.39 126.894C1369.39 126.253 1372.52 125.442 1374.52 124.272L1374.02 123.408ZM1365.23 125.906C1361.11 126.54 1356.19 126.7 1350.11 126.7V127.7C1356.19 127.7 1361.19 127.54 1365.39 126.894L1365.23 125.906ZM1350.11 126.7H1348.67V127.7H1350.11V126.7ZM1348.67 126.7C1339.19 126.7 1332.05 125.303 1327.2 122.565C1322.38 119.846 1319.8 115.794 1319.41 110.364L1318.41 110.436C1318.82 116.206 1321.6 120.554 1326.7 123.435C1331.77 126.297 1339.12 127.7 1348.67 127.7V126.7ZM1318.91 109.9H1268.99V110.9H1318.91V109.9ZM1268.49 110.4V112H1269.49V110.4H1268.49ZM1268.49 112C1268.49 126.256 1274.62 136.982 1286.88 144.112C1299.09 151.218 1317.36 154.74 1341.63 154.74V153.74C1317.42 153.74 1299.37 150.222 1287.38 143.248C1275.44 136.298 1269.49 125.904 1269.49 112H1268.49ZM1341.63 154.74H1356.19V153.74H1341.63V154.74Z" fill="#6a4d6dff"/>
</svg>
